<?xml version="1.0" encoding="utf-8"?>
<!-- Generator: Adobe Illustrator 16.0.0, SVG Export Plug-In . SVG Version: 6.00 Build 0)  -->
<!DOCTYPE svg PUBLIC "-//W3C//DTD SVG 1.1//EN" "http://www.w3.org/Graphics/SVG/1.1/DTD/svg11.dtd">
<svg version="1.1"
	 id="svg2" xmlns:osb="http://www.openswatchbook.org/uri/2009/osb" xmlns:dc="http://purl.org/dc/elements/1.1/" xmlns:cc="http://creativecommons.org/ns#" xmlns:rdf="http://www.w3.org/1999/02/22-rdf-syntax-ns#" xmlns:svg="http://www.w3.org/2000/svg" xmlns:sodipodi="http://sodipodi.sourceforge.net/DTD/sodipodi-0.dtd" xmlns:inkscape="http://www.inkscape.org/namespaces/inkscape" sodipodi:docname="Scouting sheet.svg" inkscape:version="0.48.4 r9939"
	 xmlns="http://www.w3.org/2000/svg" xmlns:xlink="http://www.w3.org/1999/xlink" x="0px" y="0px" width="744.094px"
	 height="1052.363px" viewBox="0 0 744.094 1052.363" enable-background="new 0 0 744.094 1052.363" xml:space="preserve">
<sodipodi:namedview  objecttolerance="10000" guidetolerance="10000" showgrid="false" inkscape:cy="316.89651" inkscape:cx="1019.6087" inkscape:zoom="0.32" borderopacity="1.0" bordercolor="#666666" pagecolor="#ffffff" id="base" inkscape:window-maximized="1" inkscape:window-y="0" inkscape:window-x="0" inkscape:document-units="px" inkscape:window-height="718" inkscape:pageopacity="0.0" inkscape:window-width="1364" inkscape:pageshadow="2" inkscape:current-layer="layer1">
	</sodipodi:namedview>
<g id="layer1" inkscape:label="Layer 1" inkscape:groupmode="layer">
	<rect id="rect2985" x="35.053" y="51.892" fill="#0000FF" stroke="#000000" width="225.325" height="300"/>
	<rect id="rect2991" x="260.377" y="51.892" fill="#FFFFFF" width="225.934" height="300"/>
	<rect id="rect2993" x="486.311" y="51.893" fill="#FF0000" width="225.934" height="300"/>
	
		<rect id="rect5274" x="19.539" y="382.643" fill="#FFFFFF" stroke="#000000" stroke-width="2.2271" width="708.221" height="225.363"/>
	
		<rect id="rect3792-3-6" x="47.759" y="411.941" fill="#FFFFFF" stroke="#000000" stroke-width="1.0702" width="147.586" height="75.863"/>
	
		<rect id="rect3826-6-8" x="122.857" y="456.155" fill="#FFFFFF" stroke="#000000" stroke-width="1.6478" width="72.401" height="31.214"/>
	
		<rect id="rect3792-3-6-7" x="290.011" y="411.941" fill="#FFFFFF" stroke="#000000" stroke-width="1.0702" width="147.585" height="75.864"/>
	
		<rect id="rect3826-6-8-5" x="364.804" y="456.591" fill="#FFFFFF" stroke="#000000" stroke-width="1.6478" width="72.401" height="31.214"/>
	
		<rect id="rect3792-3-6-2" x="46.726" y="522.578" fill="#FFFFFF" stroke="#000000" stroke-width="1.0702" width="147.586" height="75.865"/>
	
		<rect id="rect3826-6-8-57" x="121.824" y="566.792" fill="#FFFFFF" stroke="#000000" stroke-width="1.6478" width="72.401" height="31.215"/>
	
		<rect id="rect3792-3-6-0" x="290.011" y="522.738" fill="#FFFFFF" stroke="#000000" stroke-width="1.0702" width="147.585" height="75.865"/>
	
		<rect id="rect3826-6-8-6" x="364.804" y="567.345" fill="#FFFFFF" stroke="#000000" stroke-width="1.6478" width="72.402" height="31.215"/>
	
		<rect id="rect3792-3-6-4" x="501.374" y="468.993" fill="#FFFFFF" stroke="#000000" stroke-width="1.0702" width="147.586" height="75.864"/>
	
		<rect id="rect3826-6-8-4" x="576.471" y="513.207" fill="#FFFFFF" stroke="#000000" stroke-width="1.6478" width="72.4" height="31.214"/>
	<text transform="matrix(0.9006 0 0 1 45.0923 375.6426)" font-family="'MyriadPro-Regular'" font-size="23.375">Auto</text>
	<text transform="matrix(1 0 0 1 45.0923 402.0034)" font-family="'MyriadPro-Regular'" font-size="15.9055">Low goals attempted</text>
	<text transform="matrix(1 0 0 1 48.4253 515.1792)" font-family="'MyriadPro-Regular'" font-size="15.9055">Low goals Scored</text>
	<text transform="matrix(1 0 0 1 285.4751 402.0034)" font-family="'MyriadPro-Regular'" font-size="15.9055">High goals attempted</text>
	<text transform="matrix(1 0 0 1 285.4751 513.207)" font-family="'MyriadPro-Regular'" font-size="15.9055">High goals Scored </text>
	<text transform="matrix(1 0 0 1 504.73 400.2749)" font-family="'MyriadPro-Regular'" font-size="15.9055">Hot goals attempted</text>
	<rect id="rect5138" x="506.766" y="415.223" fill="#FFFFFF" stroke="#000000" stroke-width="2.2" width="16.02" height="13.811"/>
	
		<rect id="rect5138-6" x="622.499" y="413.841" fill="#FFFFFF" stroke="#000000" stroke-width="2.2" width="16.021" height="13.812"/>
	<text transform="matrix(1 0 0 1 529.1743 427.3433)" font-family="'MyriadPro-Regular'" font-size="15.9055">Yes</text>
	<text transform="matrix(1 0 0 1 650.6655 426.9839)" font-family="'MyriadPro-Regular'" font-size="15.9055">No</text>
	<text transform="matrix(1 0 0 1 504.73 457.3667)" font-family="'MyriadPro-Regular'" font-size="15.9055">Hot goals scored</text>
	
		<rect id="rect3826-6-8-4-3" x="500.752" y="566.804" fill="#FFFFFF" stroke="#000000" stroke-width="2.3585" width="151.791" height="30.502"/>
	<text transform="matrix(1 0 0 1 508.1392 560.6704)" font-family="'MyriadPro-Regular'" font-size="15.9055">Auto total scored</text>
	
		<rect id="rect5685" x="19.742" y="634.714" fill="#FFFFFF" stroke="#000000" stroke-width="2.1966" width="707.815" height="351.535"/>
	
		<rect id="rect3792-3-6-21" x="35.944" y="678.615" fill="#FFFFFF" stroke="#000000" stroke-width="1.0702" width="147.586" height="75.865"/>
	
		<rect id="rect3826-6-8-7" x="111.042" y="722.83" fill="#FFFFFF" stroke="#000000" stroke-width="1.6478" width="72.401" height="31.215"/>
	
		<rect id="rect3792-3-6-7-9" x="210.173" y="678.767" fill="#FFFFFF" stroke="#000000" stroke-width="1.0702" width="147.587" height="75.865"/>
	
		<rect id="rect3826-6-8-5-9" x="285.271" y="722.982" fill="#FFFFFF" stroke="#000000" stroke-width="1.6478" width="72.401" height="31.215"/>
	
		<rect id="rect3792-3-6-2-9" x="34.911" y="789.253" fill="#FFFFFF" stroke="#000000" stroke-width="1.0702" width="147.586" height="75.863"/>
	
		<rect id="rect3826-6-8-57-7" x="110.01" y="833.468" fill="#FFFFFF" stroke="#000000" stroke-width="1.6478" width="72.401" height="31.213"/>
	
		<rect id="rect3792-3-6-0-5" x="207.963" y="789.806" fill="#FFFFFF" stroke="#000000" stroke-width="1.0702" width="147.586" height="75.863"/>
	
		<rect id="rect3826-6-8-6-3" x="283.062" y="834.019" fill="#FFFFFF" stroke="#000000" stroke-width="1.6478" width="72.401" height="31.215"/>
	<text transform="matrix(0.9006 0 0 1 35.1187 629.6099)" font-family="'MyriadPro-Regular'" font-size="23.375">Teleop</text>
	<text transform="matrix(1 0 0 1 33.2778 653.0532)" font-family="'MyriadPro-Regular'" font-size="15.9055">Low goals</text>
	<text transform="matrix(1 0 0 1 33.2778 672.9351)" font-family="'MyriadPro-Regular'" font-size="15.9055">attempted</text>
	<text transform="matrix(1 0 0 1 36.6108 781.854)" font-family="'MyriadPro-Regular'" font-size="15.9055">Low goals Scored</text>
	<text transform="matrix(1 0 0 1 212.2749 651.1626)" font-family="'MyriadPro-Regular'" font-size="15.9055">High goals</text>
	<text transform="matrix(1 0 0 1 212.2749 671.0444)" font-family="'MyriadPro-Regular'" font-size="15.9055">attempted</text>
	<text transform="matrix(1 0 0 1 207.4536 780.1968)" font-family="'MyriadPro-Regular'" font-size="15.9055">High goals Scored </text>
	<g id="flowRoot5414">
	</g>
	<g id="flowRoot5422">
	</g>
	<g id="flowRoot5430">
	</g>
	
		<rect id="rect3792-3-6-21-0" x="389.627" y="677.667" fill="#FFFFFF" stroke="#000000" stroke-width="1.0702" width="147.586" height="75.863"/>
	
		<rect id="rect3826-6-8-7-6" x="464.727" y="721.88" fill="#FFFFFF" stroke="#000000" stroke-width="1.6478" width="72.4" height="31.215"/>
	
		<rect id="rect3792-3-6-2-9-7" x="388.594" y="788.304" fill="#FFFFFF" stroke="#000000" stroke-width="1.0702" width="147.586" height="75.865"/>
	
		<rect id="rect3826-6-8-57-7-1" x="463.694" y="832.519" fill="#FFFFFF" stroke="#000000" stroke-width="1.6478" width="72.4" height="31.213"/>
	<text transform="matrix(1 0 0 1 390.4771 649.3706)" font-family="'MyriadPro-Regular'" font-size="15.9055">Truss shots </text>
	<text transform="matrix(1 0 0 1 390.4771 669.2524)" font-family="'MyriadPro-Regular'" font-size="15.9055">attempted</text>
	<text transform="matrix(1 0 0 1 390.2935 780.9058)" font-family="'MyriadPro-Regular'" font-size="15.9055">Truss shots scored</text>
	
		<rect id="rect3792-3-6-21-0-7" x="564.334" y="678.253" fill="#FFFFFF" stroke="#000000" stroke-width="1.0702" width="147.588" height="75.863"/>
	
		<rect id="rect3826-6-8-7-6-1" x="639.434" y="722.466" fill="#FFFFFF" stroke="#000000" stroke-width="1.6478" width="72.4" height="31.215"/>
	
		<rect id="rect3792-3-6-2-9-7-9" x="563.301" y="788.89" fill="#FFFFFF" stroke="#000000" stroke-width="1.0702" width="147.588" height="75.865"/>
	
		<rect id="rect3826-6-8-57-7-1-8" x="638.401" y="833.105" fill="#FFFFFF" stroke="#000000" stroke-width="1.6478" width="72.4" height="31.213"/>
	<text transform="matrix(1 0 0 1 565.1841 669.8384)" font-family="'MyriadPro-Regular'" font-size="15.9055">Catches attempted</text>
	<text transform="matrix(1 0 0 1 565.0024 781.4917)" font-family="'MyriadPro-Regular'" font-size="15.9055">Catches scored</text>
	
		<rect id="rect3792-3-6-2-9-8" x="36.591" y="893.531" fill="#FFFFFF" stroke="#000000" stroke-width="1.0702" width="147.586" height="75.865"/>
	
		<rect id="rect3826-6-8-57-7-9" x="111.69" y="937.746" fill="#FFFFFF" stroke="#000000" stroke-width="1.6478" width="72.401" height="31.213"/>
	<text transform="matrix(1 0 0 1 38.291 886.1323)" font-family="'MyriadPro-Regular'" font-size="15.9055">Assists given</text>
	
		<rect id="rect3792-3-6-2-9-8-6" x="209.912" y="892.654" fill="#FFFFFF" stroke="#000000" stroke-width="1.0702" width="147.587" height="75.865"/>
	
		<rect id="rect3826-6-8-57-7-9-2" x="285.011" y="936.869" fill="#FFFFFF" stroke="#000000" stroke-width="1.6478" width="72.401" height="31.213"/>
	<text transform="matrix(1 0 0 1 211.6118 885.2554)" font-family="'MyriadPro-Regular'" font-size="15.9055">Assists caught</text>
	
		<rect id="rect3792-3-6-2-9-7-8" x="388.965" y="892.361" fill="#FFFFFF" stroke="#000000" stroke-width="1.0702" width="147.586" height="75.865"/>
	
		<rect id="rect3826-6-8-57-7-1-0" x="464.063" y="936.576" fill="#FFFFFF" stroke="#000000" stroke-width="1.6478" width="72.4" height="31.213"/>
	<text transform="matrix(1 0 0 1 390.6646 884.9624)" font-family="'MyriadPro-Regular'" font-size="15.9055">Cycles completed</text>
	
		<rect id="rect3792-3-6-2-9-7-9-3" x="563.672" y="892.947" fill="#FFFFFF" stroke="#000000" stroke-width="1.0702" width="147.586" height="75.865"/>
	
		<rect id="rect3826-6-8-57-7-1-8-3" x="638.77" y="937.162" fill="#FFFFFF" stroke="#000000" stroke-width="1.6478" width="72.402" height="31.213"/>
	<text transform="matrix(1 0 0 1 565.3716 885.5483)" font-family="'MyriadPro-Regular'" font-size="15.9055">Total teleop score</text>
	<text transform="matrix(1 0 0 1 31.2368 1022.6997)" font-family="'MyriadPro-Regular'" font-size="23.6464">Notes:</text>
	
		<rect id="rect5691" x="113.281" y="1028.925" fill="#FFFFFF" stroke="#000000" stroke-width="2.2" width="611.719" height="0.781"/>
</g>
<rect x="35.717" y="52.399" fill="#0000FF" stroke="#000000" width="37.5" height="37.5"/>
<rect x="35.053" y="314.393" fill="none" stroke="#000000" width="37.5" height="37.5"/>
<rect x="674.745" y="52.399" fill="none" stroke="#000000" width="37.5" height="37.5"/>
<rect x="674.745" y="314.393" fill="none" stroke="#000000" width="37.5" height="37.5"/>
<rect x="35.053" y="51.892" fill="none" stroke="#000000" width="677.192" height="300.001"/>
<rect x="35.053" y="52.399" fill="none" stroke="#000000" width="677.194" height="300.001"/>
<rect x="363.543" y="51.969" fill="none" stroke="#000000" width="26.75" height="299.846"/>
<text transform="matrix(1 0 0 1 38.2979 33.4404)" font-family="'MyriadPro-Regular'" font-size="22.1615">Team:</text>
<rect x="94.548" y="33.44" width="138" height="0"/>
<rect x="94.548" y="33.44" width="138" height="2"/>
<text transform="matrix(1 0 0 1 483.4536 36.4404)" font-family="'MyriadPro-Regular'" font-size="22.1615">Match:</text>
<rect x="539.703" y="36.44" width="138" height="0"/>
<rect x="546.548" y="36.44" width="138" height="2"/>
</svg>
